<svg width="68" height="100" viewBox="0 0 68 100" fill="none" xmlns="http://www.w3.org/2000/svg">
<path fill-rule="evenodd" clip-rule="evenodd" d="M29.4963 23.0092C25.2782 23.0092 21.8588 26.4286 21.8588 30.6467V56.1769L19.7743 54.5413C16.2923 51.8093 11.2864 52.2548 8.34153 55.5588C5.75241 58.4636 5.50261 62.7683 7.73833 65.9531L19.0057 82.0037C21.008 84.8562 22.4372 88.0704 23.2138 91.4679C24.2507 96.0045 28.2862 99.2217 32.9398 99.2217H47.8553C53.9189 99.2217 59.1773 95.0296 60.5284 89.1184L61.1583 86.3624C65.1839 80.9609 67.3588 74.4038 67.3588 67.6664V57.2967H67.3584V56.9717C67.3584 52.7536 63.939 49.3342 59.7209 49.3342C58.767 49.3342 57.854 49.509 57.0122 49.8284C56.125 46.5929 53.1631 44.2154 49.6459 44.2154C48.6414 44.2154 47.6821 44.4093 46.8036 44.7618C45.7798 41.7506 42.9283 39.5842 39.5709 39.5842C38.7187 39.5842 37.8992 39.7237 37.1338 39.9812V30.6467C37.1338 26.4286 33.7144 23.0092 29.4963 23.0092ZM57.2834 56.9717V57.7029V61.8467C57.2834 63.2826 56.1193 64.4467 54.6834 64.4467C53.2474 64.4467 52.0834 63.2826 52.0834 61.8467V57.7029V56.9717V51.8529C52.0834 50.5067 50.9921 49.4154 49.6459 49.4154C48.2997 49.4154 47.2084 50.5067 47.2084 51.8529V55.1029V57.7029C47.2084 59.1388 46.0443 60.3029 44.6084 60.3029C43.1724 60.3029 42.0084 59.1388 42.0084 57.7029V55.1029V51.8529V47.2217C42.0084 45.8755 40.9171 44.7842 39.5709 44.7842C38.2403 44.7842 37.1587 45.8504 37.1338 47.1751V48.3592H37.1334V55.1029C37.1334 56.5388 35.9693 57.7029 34.5334 57.7029C33.0974 57.7029 31.9334 56.5388 31.9334 55.1029V47.2217L31.9338 47.1392V30.6467C31.9338 29.3005 30.8425 28.2092 29.4963 28.2092C28.1501 28.2092 27.0588 29.3005 27.0588 30.6467V61.5217C27.0588 62.5167 26.4909 63.4244 25.5962 63.8597C24.7014 64.295 23.6367 64.1814 22.8539 63.5672L16.5644 58.6324C15.2423 57.595 13.3416 57.7642 12.2234 59.0187C11.2403 60.1217 11.1455 61.7561 11.9944 62.9654L23.2617 79.016C25.651 82.4197 27.3564 86.2551 28.283 90.3092C28.7795 92.4813 30.7117 94.0217 32.9398 94.0217H47.8553C51.4935 94.0217 54.6485 91.5064 55.4591 87.9597L56.0989 85.1606C56.2541 84.4816 56.5497 83.8426 56.9667 83.2847C60.3374 78.7753 62.1588 73.2964 62.1588 67.6664V61.8948C62.1585 61.8788 62.1584 61.8627 62.1584 61.8467V56.9717C62.1584 55.6255 61.0671 54.5342 59.7209 54.5342C58.3747 54.5342 57.2834 55.6255 57.2834 56.9717Z" fill="#252849"/>
<path d="M54.9028 35.8346C55.6117 32.889 55.8139 29.7686 55.423 26.5844C53.673 12.332 40.7005 2.19684 26.4482 3.94681C12.1958 5.69679 2.0606 18.6692 3.81057 32.9216C4.40849 37.7913 6.31652 42.1803 9.13809 45.7788" stroke="#252849" stroke-width="5.2" stroke-linecap="round"/>
<path d="M16.1461 34.9727C15.607 33.5806 15.2763 32.0807 15.194 30.5088C14.7764 22.5423 20.8961 15.7457 28.8626 15.3282C36.8292 14.9107 43.6257 21.0304 44.0432 28.9969C44.1256 30.5687 43.9535 32.0951 43.5629 33.5358" stroke="#252849" stroke-width="5.2" stroke-linecap="round"/>
</svg>
