<svg width="90" height="90" viewBox="0 0 90 90" fill="none" xmlns="http://www.w3.org/2000/svg">
<path fill-rule="evenodd" clip-rule="evenodd" d="M60.6 5.67498C60.6 2.8031 58.2719 0.474976 55.4 0.474976H52.15C49.2781 0.474976 46.95 2.8031 46.95 5.67498V6.73123H43.05V5.67498C43.05 2.8031 40.7219 0.474976 37.85 0.474976H34.6C31.7281 0.474976 29.4 2.8031 29.4 5.67498V6.73123H4.94374V41.2625H13.8V52.15C6.62029 52.15 0.799988 57.9703 0.799988 65.15V81.725C0.799988 86.0328 4.29217 89.525 8.59999 89.525H13.8H19H71H76.2H81.4C85.7078 89.525 89.2 86.0328 89.2 81.725V65.15C89.2 57.9703 83.3797 52.15 76.2 52.15V41.2625H85.055V6.73123H60.6V5.67498ZM29.4 11.9312H10.1437V36.0625H13.8V34.925C13.8 25.7561 20.58 18.1709 29.4 16.9093V11.9312ZM34.6 16.725H37.85V5.67498H34.6V16.725ZM43.05 21.925H32C31.1096 21.925 30.2401 22.0145 29.4 22.185V39.0687C29.4 44.5094 32.7422 49.1695 37.4855 51.1077C38.402 47.8191 41.4192 45.4062 45 45.4062C48.5808 45.4062 51.598 47.8191 52.5145 51.1077C57.2578 49.1695 60.6 44.5094 60.6 39.0687V22.185C59.7599 22.0145 58.8904 21.925 58 21.925H46.95H43.05ZM43.05 16.725V11.9312H46.95V16.725H43.05ZM55.4 16.725H52.15V5.67498H55.4V16.725ZM60.6 11.9312V16.9093C69.42 18.1709 76.2 25.7561 76.2 34.925V36.0625H79.855V11.9312H60.6ZM71 84.325V74.9252C64.0481 77.4845 56.6883 78.8 49.2587 78.8H41.0657C33.5205 78.8 26.0472 77.4432 19 74.8048V84.325H71ZM19 69.2168C25.9921 72.1088 33.4894 73.6 41.0657 73.6H49.2587C56.718 73.6 64.1006 72.1545 71 69.3498V52.15V34.925C71 30.6719 68.9576 26.8958 65.8 24.524V39.0687C65.8 47.3253 60.302 54.2978 52.7673 56.5247C52.4047 60.4958 49.0656 63.6062 45 63.6062C40.9344 63.6062 37.5953 60.4958 37.2326 56.5247C29.698 54.2978 24.2 47.3253 24.2 39.0687V24.524C21.0424 26.8958 19 30.6719 19 34.925V52.15V69.2168ZM13.8 84.325V67.5875H5.99999V81.725C5.99999 83.1609 7.16405 84.325 8.59999 84.325H13.8ZM6.50331 62.3875H13.8V57.35C10.4649 57.35 7.61861 59.4432 6.50331 62.3875ZM76.2 57.35V62.3875H83.4967C82.3814 59.4432 79.5351 57.35 76.2 57.35ZM84 67.5875H76.2V84.325H81.4C82.8359 84.325 84 83.1609 84 81.725V67.5875ZM45 58.4062C43.5641 58.4062 42.4 57.2422 42.4 55.8062V53.2062C42.4 51.7703 43.5641 50.6062 45 50.6062C46.4359 50.6062 47.6 51.7703 47.6 53.2062V55.8062C47.6 57.2422 46.4359 58.4062 45 58.4062Z" fill="#252849"/>
</svg>
