<svg width="79" height="100" viewBox="0 0 79 100" fill="none" xmlns="http://www.w3.org/2000/svg">
<path fill-rule="evenodd" clip-rule="evenodd" d="M16.3184 81.2H28.65V94.2H2.64998C1.21404 94.2 0.0499841 95.364 0.0499841 96.8C0.0499841 98.2359 1.21404 99.4 2.64998 99.4H28.65H49.45H75.45C76.8859 99.4 78.05 98.2359 78.05 96.8C78.05 95.364 76.8859 94.2 75.45 94.2H49.45V81.2H61.15C65.4578 81.2 68.95 77.7078 68.95 73.4V57.8C68.95 53.4922 65.4578 50 61.15 50H49.45V41.4656L58.888 40.8056C60.8333 40.6696 62.6571 39.8098 63.9999 38.3958L70.6278 31.4165C73.7806 28.0966 73.4094 22.7879 69.8253 19.9391L62.2905 13.9502C60.7639 12.7368 58.8383 12.1392 56.893 12.2753L49.45 12.7957V6.31998C49.45 3.16091 46.889 0.599976 43.73 0.599976H34.37C31.2109 0.599976 28.65 3.16094 28.65 6.31998V14.2502L20.4806 14.8215C16.1833 15.122 12.9432 18.8492 13.2437 23.1466L14.1505 36.1149C14.451 40.4122 18.1783 43.6523 22.4756 43.3518L28.65 42.9201V50H16.3184C14.3684 50 12.4891 50.7304 11.0509 52.0473L2.53249 59.8473C-0.844158 62.9392 -0.844168 68.2608 2.53249 71.3527L11.0509 79.1527C12.4891 80.4695 14.3684 81.2 16.3184 81.2ZM33.85 42.5564V50H44.25V41.8292L33.85 42.5564ZM33.85 13.8866L44.25 13.1594V6.31998C44.25 6.03279 44.0172 5.79998 43.73 5.79998H34.37C34.0828 5.79998 33.85 6.03279 33.85 6.31998V13.8866ZM44.25 94.2V81.2H33.85V94.2H44.25ZM61.15 55.2C62.5859 55.2 63.75 56.364 63.75 57.8V73.4C63.75 74.8359 62.5859 76 61.15 76H16.3184C15.6684 76 15.042 75.7565 14.5626 75.3175L6.04416 67.5175C4.91861 66.4869 4.91861 64.713 6.04416 63.6824L14.5626 55.8824C15.042 55.4435 15.6684 55.2 16.3184 55.2H52.05V65.6C52.05 67.0359 53.214 68.2 54.65 68.2C56.0859 68.2 57.25 67.0359 57.25 65.6V55.2H61.15ZM18.431 22.7838C18.3309 21.3514 19.4109 20.109 20.8433 20.0088L23.6771 19.8107L24.3568 29.5311C24.457 30.9635 25.6994 32.0435 27.1319 31.9434C28.5643 31.8432 29.6443 30.6008 29.5441 29.1683L28.8644 19.4479L57.2557 17.4626C57.9041 17.4173 58.546 17.6164 59.0549 18.0209L66.5897 24.0099C67.7844 24.9595 67.9081 26.729 66.8572 27.8357L60.2292 34.815C59.7816 35.2863 59.1737 35.5729 58.5253 35.6183L22.1129 38.1645C20.6804 38.2646 19.438 37.1846 19.3379 35.7522L18.431 22.7838Z" fill="#252849"/>
</svg>
