<svg width="22" height="20" viewBox="0 0 22 20" fill="none" xmlns="http://www.w3.org/2000/svg">
<path fill-rule="evenodd" clip-rule="evenodd" d="M5 5.5H17H18C19.1046 5.5 20 6.39543 20 7.5V15.5C20 16.6046 19.1046 17.5 18 17.5H4C2.89543 17.5 2 16.6046 2 15.5V7.5C2 6.39543 2.89543 5.5 4 5.5H5ZM6 3.5V1.5C6 0.947715 5.55228 0.5 5 0.5C4.44772 0.5 4 0.947715 4 1.5V3.5C1.79086 3.5 0 5.29086 0 7.5V15.5C0 17.7091 1.79086 19.5 4 19.5H18C20.2091 19.5 22 17.7091 22 15.5V7.5C22 5.29086 20.2091 3.5 18 3.5V1.5C18 0.947715 17.5523 0.5 17 0.5C16.4477 0.5 16 0.947715 16 1.5V3.5H6Z" fill="#7C7E92" fill-opacity="1"/>
<path fill-rule="evenodd" clip-rule="evenodd" d="M5 9.3125C5 8.76021 5.44772 8.3125 6 8.3125C6.55228 8.3125 7 8.76021 7 9.3125C7 9.86479 6.55228 10.3125 6 10.3125C5.44772 10.3125 5 9.86479 5 9.3125ZM11 8.3125C10.4477 8.3125 10 8.76021 10 9.3125C10 9.86479 10.4477 10.3125 11 10.3125C11.5523 10.3125 12 9.86479 12 9.3125C12 8.76021 11.5523 8.3125 11 8.3125ZM15 9.3125C15 8.76021 15.4477 8.3125 16 8.3125C16.5523 8.3125 17 8.76021 17 9.3125C17 9.86479 16.5523 10.3125 16 10.3125C15.4477 10.3125 15 9.86479 15 9.3125Z" fill="#7C7E92" fill-opacity="1"/>
<path fill-rule="evenodd" clip-rule="evenodd" d="M6 12.8125C5.44772 12.8125 5 13.2602 5 13.8125C5 14.3648 5.44772 14.8125 6 14.8125C6.55228 14.8125 7 14.3648 7 13.8125C7 13.2602 6.55228 12.8125 6 12.8125ZM10 13.8125C10 13.2602 10.4477 12.8125 11 12.8125C11.5523 12.8125 12 13.2602 12 13.8125C12 14.3648 11.5523 14.8125 11 14.8125C10.4477 14.8125 10 14.3648 10 13.8125ZM16 12.8125C15.4477 12.8125 15 13.2602 15 13.8125C15 14.3648 15.4477 14.8125 16 14.8125C16.5523 14.8125 17 14.3648 17 13.8125C17 13.2602 16.5523 12.8125 16 12.8125Z" fill="#7C7E92" fill-opacity="1"/>
</svg>
