<svg width="22" height="20" viewBox="0 0 22 20" fill="none" xmlns="http://www.w3.org/2000/svg">
<path fill-rule="evenodd" clip-rule="evenodd" d="M0 17C0 18.6569 1.34315 20 3 20H19C20.6569 20 22 18.6569 22 17V6.97567C22 5.31882 20.6569 3.97567 19 3.97567H16.7796L16.3501 2.26822C16.0147 0.934769 14.8158 2.28882e-05 13.4408 2.28882e-05H8.55924C7.18424 2.28882e-05 5.98526 0.934769 5.64986 2.26822L5.22038 3.97567H3C1.34315 3.97567 0 5.31882 0 6.97567V17ZM3 18C2.44772 18 2 17.5523 2 17V6.97567C2 6.42339 2.44771 5.97567 3 5.97567H5.68815C6.32981 5.97567 6.88934 5.53946 7.04586 4.91718L7.58944 2.75609C7.70125 2.31161 8.1009 2.00002 8.55924 2.00002H13.4408C13.8991 2.00002 14.2988 2.31161 14.4106 2.75609L14.9541 4.91718C15.1107 5.53946 15.6702 5.97567 16.3118 5.97567H19C19.5523 5.97567 20 6.42339 20 6.97567V17C20 17.5523 19.5523 18 19 18H3ZM11 10C12.1046 10 13 10.8955 13 12C13 13.1046 12.1046 14 11 14C9.89543 14 9 13.1046 9 12C9 10.8955 9.89543 10 11 10ZM11 8.00002C13.2091 8.00002 15 9.79088 15 12C15 14.2092 13.2091 16 11 16C8.79086 16 7 14.2092 7 12C7 9.79088 8.79086 8.00002 11 8.00002ZM17 9.03127C17.5523 9.03127 18 8.58356 18 8.03127C18 7.47899 17.5523 7.03127 17 7.03127C16.4477 7.03127 16 7.47899 16 8.03127C16 8.58356 16.4477 9.03127 17 9.03127Z" fill="#7C7E92"/>
</svg>
