<svg width="24" height="24" viewBox="0 0 24 24" fill="none" xmlns="http://www.w3.org/2000/svg">
<path fill-rule="evenodd" clip-rule="evenodd" d="M6 22H18C19.6569 22 21 20.6569 21 19V8.41423C21 7.61858 20.6839 6.85552 20.1213 6.29291L16.7071 2.87869C16.1445 2.31609 15.3814 2.00002 14.5858 2.00002H6C4.34315 2.00002 3 3.34316 3 5.00002V19C3 20.6569 4.34315 22 6 22ZM5 5.00002C5 4.44773 5.44772 4.00002 6 4.00002H13V8.60002C13 9.37321 13.6268 10 14.4 10H19V19C19 19.5523 18.5523 20 18 20H6C5.44772 20 5 19.5523 5 19V5.00002ZM18.9102 8.00002C18.861 7.89203 18.7926 7.79263 18.7071 7.70712L15.2929 4.29291C15.2074 4.2074 15.108 4.13898 15 4.08983V8.00002H18.9102Z" fill="#7C7E92"/>
</svg>
