<svg width="31" height="24" viewBox="0 0 31 24" fill="none" xmlns="http://www.w3.org/2000/svg">
<path fill-rule="evenodd" clip-rule="evenodd" d="M4.5 0C5.05228 0 5.5 0.447715 5.5 1V3.375H10.1492L10.4231 3.15587C11.8641 2.00306 13.6546 1.375 15.5 1.375C17.3454 1.375 19.1359 2.00306 20.5769 3.15587L20.8508 3.375H25.5V1C25.5 0.447715 25.9477 0 26.5 0C27.0523 0 27.5 0.447715 27.5 1V3.375V5.625V12.7292C28.1224 13.4343 28.5 14.3606 28.5 15.375V15.384C29.6213 15.485 30.5 16.4274 30.5 17.575V20.175C30.5 21.39 29.515 22.375 28.3 22.375H26.5V23C26.5 23.5523 26.0523 24 25.5 24C24.9477 24 24.5 23.5523 24.5 23V22.375H6.5V23C6.5 23.5523 6.05228 24 5.5 24C4.94772 24 4.5 23.5523 4.5 23V22.375H2.7C1.48499 22.375 0.5 21.39 0.5 20.175V17.575C0.5 16.4274 1.3787 15.485 2.5 15.384V15.375C2.5 14.3606 2.87764 13.4343 3.5 12.7292V5.625V3.375V1C3.5 0.447715 3.94772 0 4.5 0ZM25.5 5.625V5.375H20.1492L19.3275 4.71761C18.2411 3.8485 16.8913 3.375 15.5 3.375C14.1087 3.375 12.7589 3.8485 11.6725 4.71761L10.8508 5.375H5.5V5.625V11.375H6.5H6.95196C7.36379 10.2098 8.47503 9.375 9.78125 9.375H11.7812C13.0875 9.375 14.1987 10.2098 14.6105 11.375H16.3895C16.8013 10.2098 17.9125 9.375 19.2188 9.375H21.2188C22.525 9.375 23.6362 10.2098 24.048 11.375H24.5H25.5V5.625ZM28.3 20.375H25.5H5.5H2.7C2.58954 20.375 2.5 20.2855 2.5 20.175V17.575C2.5 17.4645 2.58954 17.375 2.7 17.375H28.3C28.4105 17.375 28.5 17.4645 28.5 17.575V20.175C28.5 20.2855 28.4105 20.375 28.3 20.375ZM26.5 15.375C26.5 14.2704 25.6046 13.375 24.5 13.375H23.2188H17.2188H13.7812H7.78125H6.5C5.39543 13.375 4.5 14.2704 4.5 15.375H26.5Z" fill="#4CAF50"/>
</svg>
