<svg width="20" height="20" viewBox="0 0 20 20" fill="none" xmlns="http://www.w3.org/2000/svg">
<path fill-rule="evenodd" clip-rule="evenodd" d="M18 10C18 14.4183 14.4183 18 10 18C5.58172 18 2 14.4183 2 10C2 5.58172 5.58172 2 10 2C14.4183 2 18 5.58172 18 10ZM20 10C20 15.5228 15.5228 20 10 20C4.47715 20 0 15.5228 0 10C0 4.47715 4.47715 0 10 0C15.5228 0 20 4.47715 20 10ZM8.86133 7.60352V15H10.8438V7.60352H8.86133ZM9.03906 4.95801C8.8431 5.14941 8.74512 5.39323 8.74512 5.68945C8.74512 5.99023 8.84538 6.23633 9.0459 6.42773C9.25098 6.61914 9.51986 6.71484 9.85254 6.71484C10.1852 6.71484 10.4518 6.61914 10.6523 6.42773C10.8574 6.23633 10.96 5.99023 10.96 5.68945C10.96 5.39323 10.8597 5.14941 10.6592 4.95801C10.4587 4.7666 10.1898 4.6709 9.85254 4.6709C9.51074 4.6709 9.23958 4.7666 9.03906 4.95801Z" fill="#4CAF50"/>
</svg>
