<svg width="22" height="20" viewBox="0 0 22 20" fill="none" xmlns="http://www.w3.org/2000/svg">
<path fill-rule="evenodd" clip-rule="evenodd" d="M11.8878 18.5129C11.3353 18.8311 10.6649 18.8291 10.1141 18.5081C8.12818 17.3505 3.35894 14.2518 1.63208 10.3044C0.570019 7.89998 0.682662 3.99686 3.24127 2.21822C4.38313 1.29398 5.83553 0.868865 7.28222 1.03543C8.72891 1.20199 10.0872 1.83922 10.9999 3C11.9125 1.83922 13.2018 1.20199 14.6485 1.03543C16.0952 0.868865 17.5476 1.29398 18.6895 2.21822C21.3125 3.99686 21.4251 7.88351 20.3952 10.3044C18.7165 14.2573 13.8907 17.3591 11.8878 18.5129Z" stroke="#3B3E5B" stroke-width="2" stroke-linecap="round" stroke-linejoin="round"/>
<path d="M17 5.00024C17.9345 5.65802 18.3391 7.62403 17.6648 9.00024" stroke="#3B3E5B" stroke-width="2" stroke-linecap="round" stroke-linejoin="round"/>
</svg>
