<svg width="22" height="20" viewBox="0 0 22 20" fill="none" xmlns="http://www.w3.org/2000/svg">
<path fill-rule="evenodd" clip-rule="evenodd" d="M2.64047 1.41821C3.98475 0.342407 5.69253 -0.154207 7.39671 0.0420042C8.69447 0.191423 9.97095 0.676993 10.9958 1.5569C11.9953 0.683089 13.2254 0.192702 14.5343 0.0420042C16.2365 -0.153985 17.9424 0.341288 19.2859 1.41458C20.8662 2.50308 21.6464 4.19405 21.9009 5.87033C22.1563 7.55156 21.9026 9.3159 21.3155 10.6959C20.3872 12.8815 18.6252 14.766 16.9101 16.2209C15.181 17.6877 13.418 18.7855 12.387 19.3794C11.5237 19.8767 10.4708 19.8734 9.6106 19.372C8.58827 18.7761 6.84477 17.6783 5.12711 16.2133C3.4227 14.7596 1.66837 12.8812 0.716709 10.7068C0.109122 9.33031 -0.152104 7.56463 0.0891855 5.8845C0.329787 4.20916 1.09019 2.51085 2.64047 1.41821ZM17.5757 4.18253C17.124 3.86464 16.5002 3.97305 16.1823 4.42468C15.8645 4.87631 15.9729 5.50012 16.4245 5.81801C16.593 5.93662 16.8425 6.29933 16.9515 6.90728C17.0555 7.4878 16.9924 8.09996 16.7669 8.56029C16.5239 9.05624 16.7289 9.65528 17.2249 9.89827C17.7209 10.1413 18.3199 9.9362 18.5629 9.44025C19.0116 8.52436 19.0834 7.4654 18.9201 6.55442C18.7617 5.67087 18.3417 4.72169 17.5757 4.18253Z" fill="white"/>
</svg>
