<svg width="31" height="26" viewBox="0 0 31 26" fill="none" xmlns="http://www.w3.org/2000/svg">
<path fill-rule="evenodd" clip-rule="evenodd" d="M15.8939 0.080855C15.6424 -0.0269517 15.3576 -0.0269517 15.1061 0.080855L1.10608 6.08085C0.738397 6.23843 0.5 6.59997 0.5 7V10.1875C0.5 10.7398 0.947715 11.1875 1.5 11.1875H2.5V12.7875C2.5 13.4863 3.01193 14.0655 3.6812 14.1705L3.31802 24H1.5C0.947715 24 0.5 24.4477 0.5 25C0.5 25.5523 0.947715 26 1.5 26H29.5C30.0523 26 30.5 25.5523 30.5 25C30.5 24.4477 30.0523 24 29.5 24H27.6821L27.3189 14.1705C27.9881 14.0654 28.5 13.4862 28.5 12.7875V11.1875H29.5C30.0523 11.1875 30.5 10.7398 30.5 10.1875V7C30.5 6.59997 30.2616 6.23843 29.8939 6.08085L15.8939 0.080855ZM26.5 11.1875H22.5V12.1875H26.5V11.1875ZM20.5 9.1875H28.5V7.6594L15.5 2.08797L2.5 7.6594V9.1875H10.5H11.5H19.5H20.5ZM20.5 11.1875V12.7875C20.5 13.4863 21.0119 14.0655 21.6812 14.1705L21.318 24H18.6821L18.3189 14.1705C18.9881 14.0654 19.5 13.4862 19.5 12.7875V11.1875H20.5ZM23.682 14.1875L23.3194 24H25.6807L25.3182 14.1875H23.682ZM4.5 11.1875H8.5V12.1875H4.5V11.1875ZM11.5 11.1875H10.5V12.7875C10.5 13.4862 9.98814 14.0654 9.31893 14.1705L9.68211 24H12.318L12.6812 14.1705C12.0119 14.0655 11.5 13.4863 11.5 12.7875V11.1875ZM5.68197 14.1875H7.31817L7.68072 24H5.31942L5.68197 14.1875ZM13.5 11.1875V12.1875H17.5V11.1875H13.5ZM16.3182 14.1875H14.682L14.3194 24H16.6807L16.3182 14.1875ZM15.1061 4.08085C15.3576 3.97305 15.6424 3.97305 15.8939 4.08085L19.3939 5.58085C19.9016 5.79841 20.1367 6.38629 19.9192 6.89392C19.7016 7.40155 19.1137 7.6367 18.6061 7.41915L15.5 6.08797L12.3939 7.41915C11.8863 7.6367 11.2984 7.40155 11.0809 6.89392C10.8633 6.38629 11.0985 5.79841 11.6061 5.58085L15.1061 4.08085Z" fill="#4CAF50"/>
</svg>
