<svg width="23" height="28" viewBox="0 0 23 28" fill="none" xmlns="http://www.w3.org/2000/svg">
<path fill-rule="evenodd" clip-rule="evenodd" d="M13.7489 0C10.711 0 8.12524 1.92654 7.14291 4.62322C3.33137 5.54304 0.5 8.97425 0.5 13.0685C0.5 17.8665 4.38953 21.756 9.1875 21.756C9.63335 21.756 10.0717 21.7224 10.5 21.6574V26H6.5C5.94772 26 5.5 26.4477 5.5 27C5.5 27.5523 5.94772 28 6.5 28H11.5H16.5C17.0523 28 17.5 27.5523 17.5 27C17.5 26.4477 17.0523 26 16.5 26H12.5V21.3431C13.2734 21.6108 14.1033 21.756 14.9655 21.756C19.1266 21.756 22.4998 18.3828 22.4998 14.2218C22.4998 12.2344 21.7294 10.426 20.4731 9.08059C20.6712 8.4306 20.7776 7.74137 20.7776 7.02871C20.7776 3.14686 17.6308 0 13.7489 0ZM12.5 19.1896C12.5419 19.2028 12.5832 19.2189 12.6234 19.2377C13.3335 19.5699 14.1264 19.756 14.9655 19.756C18.022 19.756 20.4998 17.2783 20.4998 14.2218C20.4998 12.5805 19.7866 11.1071 18.65 10.0922C18.3323 9.8085 18.2292 9.35472 18.393 8.96158C18.6405 8.36784 18.7776 7.71556 18.7776 7.02871C18.7776 4.25143 16.5262 2 13.7489 2C11.4181 2 9.45531 3.58666 8.88649 5.74043C8.78599 6.12096 8.47162 6.40716 8.08335 6.47159C4.91552 6.99728 2.5 9.75179 2.5 13.0685C2.5 16.7619 5.4941 19.756 9.1875 19.756C9.63724 19.756 10.076 19.7118 10.5 19.6275V14.7882C10.4923 14.7809 10.4846 14.7735 10.4771 14.7659L8.13698 12.4259C7.74646 12.0353 7.74646 11.4022 8.13698 11.0116C8.5275 10.6211 9.16067 10.6211 9.55119 11.0116L10.5 11.9605V9.3125C10.5 8.76021 10.9477 8.3125 11.5 8.3125C12.0523 8.3125 12.5 8.76021 12.5 9.3125L12.5 14.9607L13.4491 14.0116C13.8396 13.6211 14.4727 13.6211 14.8633 14.0116C15.2538 14.4022 15.2538 15.0353 14.8633 15.4259L12.5232 17.7659C12.5155 17.7736 12.5078 17.7811 12.5 17.7884V19.1896Z" fill="#4CAF50"/>
</svg>
