<svg width="24" height="24" viewBox="0 0 24 24" fill="none" xmlns="http://www.w3.org/2000/svg">
<path fill-rule="evenodd" clip-rule="evenodd" d="M4 3.50002H20C21.6569 3.50002 23 4.84316 23 6.50002V17.5C23 19.1569 21.6569 20.5 20 20.5H4C2.34315 20.5 1 19.1569 1 17.5V6.50002C1 4.84316 2.34315 3.50002 4 3.50002ZM4 5.50002C3.44772 5.50002 3 5.94773 3 6.50002V17.5C3 18.0523 3.44772 18.5 4 18.5H20C20.5523 18.5 21 18.0523 21 17.5V6.50002C21 5.94773 20.5523 5.50002 20 5.50002H4Z" fill="#7C7E92"/>
<path fill-rule="evenodd" clip-rule="evenodd" d="M8.62521 10C8.92823 10 9.21491 10.1374 9.40472 10.3736L14.269 16.427L16.8609 13.3551C17.0509 13.13 17.3306 13 17.6252 13C17.9199 13 18.1995 13.13 18.3895 13.3551L21.7645 17.3551L20.2359 18.6449L17.6252 15.5507L15.0145 18.6449C14.8218 18.8733 14.537 19.0035 14.2382 18.9999C13.9394 18.9964 13.6579 18.8593 13.4707 18.6264L8.62521 12.5965L3.77972 18.6264L2.2207 17.3736L7.8457 10.3736C8.03551 10.1374 8.32219 10 8.62521 10Z" fill="#7C7E92"/>
<circle cx="15" cy="9.50002" r="2" fill="#7C7E92"/>
</svg>
