<svg width="29" height="28" viewBox="0 0 29 28" fill="none" xmlns="http://www.w3.org/2000/svg">
<path fill-rule="evenodd" clip-rule="evenodd" d="M13.5 4C13.5 4.55228 13.9477 5 14.5 5C15.0523 5 15.5 4.55228 15.5 4V1C15.5 0.447715 15.0523 0 14.5 0C13.9477 0 13.5 0.447715 13.5 1V4ZM4.5 19.7914C4.5 14.2685 8.97715 9.79138 14.5 9.79138C20.0228 9.79138 24.5 14.2685 24.5 19.7914C24.5 20.5512 24.4154 21.2902 24.2555 22H4.7445C4.58456 21.2902 4.5 20.5512 4.5 19.7914ZM2.52854 20.625H1.5C0.947715 20.625 0.5 20.1773 0.5 19.625C0.5 19.0727 0.947715 18.625 1.5 18.625H2.55596C3.14242 12.5449 8.26609 7.79138 14.5 7.79138C20.7339 7.79138 25.8576 12.5449 26.444 18.625H27.5C28.0523 18.625 28.5 19.0727 28.5 19.625C28.5 20.1773 28.0523 20.625 27.5 20.625H26.4715C26.4082 21.5454 26.2411 22.4382 25.9813 23.2913L25.7655 24H3.23448L3.01869 23.2913C2.75893 22.4382 2.59177 21.5454 2.52854 20.625ZM2.5 26C1.94772 26 1.5 26.4477 1.5 27C1.5 27.5523 1.94772 28 2.5 28H26.5C27.0523 28 27.5 27.5523 27.5 27C27.5 26.4477 27.0523 26 26.5 26H2.5ZM13.5 12.7914C13.5 12.2391 13.9477 11.7914 14.5 11.7914C17.5294 11.7914 20.164 13.4756 21.5211 15.954C21.7863 16.4384 21.6087 17.0461 21.1242 17.3114C20.6398 17.5766 20.0321 17.399 19.7668 16.9146C18.7466 15.0513 16.7697 13.7914 14.5 13.7914C13.9477 13.7914 13.5 13.3437 13.5 12.7914ZM10.5 5C9.94771 5 9.5 4.55228 9.5 4V3C9.5 2.44772 9.94771 2 10.5 2C11.0523 2 11.5 2.44772 11.5 3V4C11.5 4.55228 11.0523 5 10.5 5ZM17.5 4C17.5 4.55228 17.9477 5 18.5 5C19.0523 5 19.5 4.55228 19.5 4V3C19.5 2.44772 19.0523 2 18.5 2C17.9477 2 17.5 2.44772 17.5 3V4Z" fill="#4CAF50"/>
</svg>
