<svg width="20" height="22" viewBox="0 0 20 22" fill="none" xmlns="http://www.w3.org/2000/svg">
<path fill-rule="evenodd" clip-rule="evenodd" d="M20 3C20 4.65685 18.6569 6 17 6C15.6938 6 14.5825 5.16519 14.1707 4H5C3.34315 4 2 5.34315 2 7V7.25926C2 8.91611 3.34315 10.2593 5 10.2593H15.1296C17.8195 10.2593 20 12.4398 20 15.1296C20 17.8195 17.8195 20 15.1296 20H13.4142L13.7071 20.2929C14.0977 20.6834 14.0977 21.3166 13.7071 21.7071C13.3166 22.0976 12.6834 22.0976 12.2929 21.7071L9.58582 19L12.2929 16.2929C12.6834 15.9024 13.3166 15.9024 13.7071 16.2929C14.0977 16.6834 14.0977 17.3166 13.7071 17.7071L13.4142 18H15.1296C16.7149 18 18 16.7149 18 15.1296C18 13.5444 16.7149 12.2593 15.1296 12.2593H5C2.23858 12.2593 0 10.0207 0 7.25926V7C0 4.23858 2.23858 2 5 2H14.1707C14.5825 0.834808 15.6938 0 17 0C18.6569 0 20 1.34315 20 3ZM3 22C4.65685 22 6 20.6569 6 19C6 17.3431 4.65685 16 3 16C1.34315 16 0 17.3431 0 19C0 20.6569 1.34315 22 3 22Z" fill="white"/>
</svg>
